<?xml version="1.0" encoding="UTF-8" standalone="no"?><!DOCTYPE svg PUBLIC "-//W3C//DTD SVG 1.1//EN" "http://www.w3.org/Graphics/SVG/1.1/DTD/svg11.dtd"><svg width="100%" height="100%" viewBox="0 0 2134 2134" version="1.1" xmlns="http://www.w3.org/2000/svg" xmlns:xlink="http://www.w3.org/1999/xlink" xml:space="preserve" xmlns:serif="http://www.serif.com/" style="fill-rule:evenodd;clip-rule:evenodd;stroke-linejoin:round;stroke-miterlimit:2;">
<style>
#Base-Bottom { fill: #808080; }
@media (prefers-color-scheme: dark) {
  #Base-Bottom { fill: #b0b0b0; }
}
</style>
<path id="Base-Bottom" serif:id="Base Bottom" d="M1452.94,2113.77l-399.37,-397.691l-396.856,398.531l-0.836,-0l0,-649.184l0.836,0l135.838,-136.411c1.21,47.4 40.069,85.509 87.758,85.509c48.451,0 87.787,-39.336 87.787,-87.787c0,-47.813 -38.307,-86.75 -85.879,-87.767l171.352,-172.075l152.112,151.473c10.048,-37.415 44.226,-64.992 84.794,-64.992c48.451,-0 87.787,39.336 87.787,87.787c0,40.439 -27.402,74.529 -64.635,84.697l139.312,138.727l-0.836,0.839l0.836,0l0,648.344Zm0,0l0,0.84l-0.836,-0l0.836,-0.84Z"/><path id="Top-Right" serif:id="Top Right" d="M1366.11,1078.76l-146.142,-145.528l148.188,-148.813c-1.184,5.701 -1.805,11.607 -1.805,17.657c-0,47.793 38.801,86.595 86.594,86.595c47.793,-0 86.595,-38.802 86.595,-86.595c-0,-47.792 -38.802,-86.594 -86.595,-86.594c-6.176,-0 -12.203,0.648 -18.014,1.88l182.193,-182.963l399.906,398.225l-397.157,398.832l-178.651,-177.9c3.835,0.513 7.748,0.778 11.723,0.778c48.383,0 87.664,-39.281 87.664,-87.663c-0,-48.383 -39.281,-87.664 -87.664,-87.664c-48.383,0 -87.663,39.281 -87.663,87.664c-0,4.101 0.282,8.137 0.828,12.089Z" style="fill:#f20d0d;"/><path id="Top-Left" serif:id="Top Left" d="M764.164,783.81l149.205,148.579l-159.143,159.815c36.812,10.444 63.811,44.328 63.811,84.467c-0,48.452 -39.337,87.788 -87.788,87.788c-40.01,-0 -73.805,-26.825 -84.365,-63.456l-130.206,130.756l-399.37,-397.692l397.691,-399.37l139.818,139.23c11.151,-35.679 44.477,-61.602 83.809,-61.602c48.452,-0 87.788,39.336 87.788,87.787c-0,39.203 -25.753,72.439 -61.25,83.698Z" style="fill:#e5f20d;"/><path id="Top-Middle" serif:id="Top Middle" d="M1198.67,671.766l-143.418,144.024l-156.954,-156.295c44.167,-4.574 78.656,-41.95 78.656,-87.318c-0,-48.451 -39.336,-87.787 -87.787,-87.787c-45.494,0 -82.952,34.681 -87.355,79.024l-145.93,-145.316l397.692,-399.37l399.37,397.691l-142.897,143.501c34.521,11.821 59.368,44.57 59.368,83.077c-0,48.451 -39.337,87.788 -87.788,87.788c-38.376,-0 -71.035,-24.679 -82.957,-59.019Z" style="fill:#5ebf40;"/></svg>