<?xml version="1.0" encoding="UTF-8" standalone="no"?><!DOCTYPE svg PUBLIC "-//W3C//DTD SVG 1.1//EN" "http://www.w3.org/Graphics/SVG/1.1/DTD/svg11.dtd"><svg width="100%" height="100%" viewBox="0 0 2134 2134" version="1.1" xmlns="http://www.w3.org/2000/svg" xmlns:xlink="http://www.w3.org/1999/xlink" xml:space="preserve" xmlns:serif="http://www.serif.com/" style="fill-rule:evenodd;clip-rule:evenodd;stroke-linejoin:round;stroke-miterlimit:2;"><g id="Grays"><path id="_5b" serif:id="5b" d="M1038.92,1496.41l0,156.065c0,43.067 -34.965,78.032 -78.032,78.032l-179.475,0c-43.068,0 -78.033,-34.965 -78.033,-78.032l-0,-156.065c-0,-43.068 34.965,-78.033 78.033,-78.033l179.475,-0c43.067,-0 78.032,34.965 78.032,78.033Z" style="fill:#3a3a3c;"/><path id="_5b1" serif:id="5b" d="M1402.21,822.152l-0,156.065c-0,43.068 -34.965,78.033 -78.033,78.033l-179.475,0c-43.067,0 -78.032,-34.965 -78.032,-78.033l-0,-156.065c-0,-43.067 34.965,-78.032 78.032,-78.032l179.475,-0c43.068,-0 78.033,34.965 78.033,78.032Z" style="fill:#3a3a3c;"/><path id="_5b2" serif:id="5b" d="M1038.92,820.286l0,156.065c0,43.068 -34.965,78.033 -78.032,78.033l-179.475,0c-43.068,0 -78.033,-34.965 -78.033,-78.033l-0,-156.065c-0,-43.067 34.965,-78.032 78.033,-78.032l179.475,-0c43.067,-0 78.032,34.965 78.032,78.032Z" style="fill:#3a3a3c;"/></g><g id="D2"><path id="_5a" serif:id="5a" d="M1402.21,1157.89l-0,156.065c-0,43.067 -34.965,78.032 -78.033,78.032l-179.475,0c-43.067,0 -78.032,-34.965 -78.032,-78.032l-0,-156.065c-0,-43.068 34.965,-78.033 78.032,-78.033l179.475,-0c43.068,-0 78.033,34.965 78.033,78.033Z" style="fill:#9e17e1;"/><path id="_5a1" serif:id="5a" d="M1784.61,832.993l-0,156.065c-0,43.067 -34.966,78.033 -78.033,78.033l-179.475,-0c-43.067,-0 -78.032,-34.966 -78.032,-78.033l-0,-156.065c-0,-43.068 34.965,-78.033 78.032,-78.033l179.475,0c43.067,0 78.033,34.965 78.033,78.033Z" style="fill:#9e17e1;"/><path id="_3e" serif:id="3e" d="M1784.61,1496.41l-0,156.065c-0,43.067 -34.966,78.032 -78.033,78.032l-179.475,0c-43.067,0 -78.032,-34.965 -78.032,-78.032l-0,-156.065c-0,-43.068 34.965,-78.033 78.032,-78.033l179.475,-0c43.067,-0 78.033,34.965 78.033,78.033Z" style="fill:#9e17e1;"/><path id="_4d" serif:id="4d" d="M1406.22,1496.41l-0,156.065c-0,43.067 -34.966,78.032 -78.033,78.032l-179.475,0c-43.067,0 -78.033,-34.965 -78.033,-78.032l0,-156.065c0,-43.068 34.966,-78.033 78.033,-78.033l179.475,-0c43.067,-0 78.033,34.965 78.033,78.033Z" style="fill:#9e17e1;"/><path id="_5d" serif:id="5d" d="M1784.61,1165.04l-0,156.066c-0,43.067 -34.966,78.032 -78.033,78.032l-179.475,0c-43.067,0 -78.032,-34.965 -78.032,-78.032l-0,-156.066c-0,-43.067 34.965,-78.032 78.032,-78.032l179.475,-0c43.067,-0 78.033,34.965 78.033,78.032Z" style="fill:#9e17e1;"/><path id="_5c" serif:id="5c" d="M1784.61,488.625l-0,156.065c-0,43.067 -34.966,78.032 -78.033,78.032l-179.475,0c-43.067,0 -78.032,-34.965 -78.032,-78.032l-0,-156.065c-0,-43.068 34.965,-78.033 78.032,-78.033l179.475,0c43.067,0 78.033,34.965 78.033,78.033Z" style="fill:#9e17e1;"/></g><g id="F"><path id="_2c" serif:id="2c" d="M1038.18,1158.37l-0,156.065c-0,43.068 -34.965,78.033 -78.033,78.033l-179.475,-0c-43.067,-0 -78.032,-34.965 -78.032,-78.033l-0,-156.065c-0,-43.067 34.965,-78.033 78.032,-78.033l179.475,0c43.068,0 78.033,34.966 78.033,78.033Z" style="fill:#fcc331;"/><path id="_2a" serif:id="2a" d="M1038.18,480.856l-0,156.065c-0,43.067 -34.965,78.032 -78.033,78.032l-179.475,0c-43.067,0 -78.032,-34.965 -78.032,-78.032l-0,-156.065c-0,-43.068 34.965,-78.033 78.032,-78.033l179.475,-0c43.068,-0 78.033,34.965 78.033,78.033Z" style="fill:#fcc331;"/><path id="_2a1" serif:id="2a" d="M1402.21,481.703l-0,156.066c-0,43.067 -34.965,78.032 -78.033,78.032l-179.475,0c-43.067,0 -78.032,-34.965 -78.032,-78.032l-0,-156.066c-0,-43.067 34.965,-78.032 78.032,-78.032l179.475,-0c43.068,-0 78.033,34.965 78.033,78.032Z" style="fill:#fcc331;"/><path id="_1d" serif:id="1d" d="M673.904,1496.41l0,156.065c0,43.067 -34.965,78.032 -78.032,78.032l-179.475,0c-43.068,0 -78.033,-34.965 -78.033,-78.032l0,-156.065c0,-43.068 34.965,-78.033 78.033,-78.033l179.475,-0c43.067,-0 78.032,34.965 78.032,78.033Z" style="fill:#fcc331;"/><path id="_1a" serif:id="1a" d="M673.904,480.856l0,156.065c0,43.067 -34.965,78.032 -78.032,78.032l-179.475,0c-43.068,0 -78.033,-34.965 -78.033,-78.032l0,-156.065c0,-43.068 34.965,-78.033 78.033,-78.033l179.475,-0c43.067,-0 78.032,34.965 78.032,78.033Z" style="fill:#fcc331;"/><path id="_1b" serif:id="1b" d="M673.904,819.224l0,156.065c0,43.068 -34.965,78.033 -78.032,78.033l-179.475,-0c-43.068,-0 -78.033,-34.965 -78.033,-78.033l0,-156.065c0,-43.067 34.965,-78.033 78.033,-78.033l179.475,0c43.067,0 78.032,34.966 78.032,78.033Z" style="fill:#fcc331;"/><path id="_1c" serif:id="1c" d="M673.904,1157.89l0,156.065c0,43.067 -34.965,78.032 -78.032,78.032l-179.475,0c-43.068,0 -78.033,-34.965 -78.033,-78.032l0,-156.065c0,-43.068 34.965,-78.033 78.033,-78.033l179.475,-0c43.067,-0 78.032,34.965 78.032,78.033Z" style="fill:#fcc331;"/></g></svg>